REM DIRINDEX 1\2,1\3,1\4,1\5\6,1\5\7,1\8
REM DIRNAME cjc115,folder01,folder02,folder03,folder04,folder05,folder06,folder07
TITLE ""
FILE "156 Åy156ÅzUnit9 (1765 relate to Å`_1776 blame A on B).mp3" MP3
  TRACK 01 AUDIO
    TITLE "0:"
    INDEX 01 00:00:00
  TRACK 02 AUDIO
    TITLE "2:cjc115_6100"
    INDEX 01 00:00:07
  TRACK 03 AUDIO
    TITLE "0:"
    INDEX 01 00:01:38
  TRACK 04 AUDIO
    TITLE "3:cjc115_6101"
    INDEX 01 00:01:44
  TRACK 05 AUDIO
    TITLE "0:"
    INDEX 01 00:04:46
  TRACK 06 AUDIO
    TITLE "4:cjc115_6102"
    INDEX 01 00:04:52
  TRACK 07 AUDIO
    TITLE "0:"
    INDEX 01 00:09:26
  TRACK 08 AUDIO
    TITLE "2:cjc115_6103"
    INDEX 01 00:10:35
  TRACK 09 AUDIO
    TITLE "0:"
    INDEX 01 00:11:56
  TRACK 10 AUDIO
    TITLE "3:cjc115_6104"
    INDEX 01 00:11:66
  TRACK 11 AUDIO
    TITLE "0:"
    INDEX 01 00:13:43
  TRACK 12 AUDIO
    TITLE "4:cjc115_6105"
    INDEX 01 00:13:51
  TRACK 13 AUDIO
    TITLE "0:"
    INDEX 01 00:17:21
  TRACK 14 AUDIO
    TITLE "2:cjc115_6106"
    INDEX 01 00:18:29
  TRACK 15 AUDIO
    TITLE "0:"
    INDEX 01 00:19:46
  TRACK 16 AUDIO
    TITLE "3:cjc115_6107"
    INDEX 01 00:19:56
  TRACK 17 AUDIO
    TITLE "0:"
    INDEX 01 00:22:54
  TRACK 18 AUDIO
    TITLE "4:cjc115_6108"
    INDEX 01 00:22:60
  TRACK 19 AUDIO
    TITLE "0:"
    INDEX 01 00:26:28
  TRACK 20 AUDIO
    TITLE "2:cjc115_6109"
    INDEX 01 00:27:36
  TRACK 21 AUDIO
    TITLE "0:"
    INDEX 01 00:28:49
  TRACK 22 AUDIO
    TITLE "3:cjc115_6110"
    INDEX 01 00:28:57
  TRACK 23 AUDIO
    TITLE "0:"
    INDEX 01 00:30:01
  TRACK 24 AUDIO
    TITLE "4:cjc115_6111"
    INDEX 01 00:30:10
  TRACK 25 AUDIO
    TITLE "0:"
    INDEX 01 00:34:14
  TRACK 26 AUDIO
    TITLE "2:cjc115_6112"
    INDEX 01 00:35:23
  TRACK 27 AUDIO
    TITLE "0:"
    INDEX 01 00:37:03
  TRACK 28 AUDIO
    TITLE "3:cjc115_6113"
    INDEX 01 00:37:14
  TRACK 29 AUDIO
    TITLE "0:"
    INDEX 01 00:39:41
  TRACK 30 AUDIO
    TITLE "4:cjc115_6114"
    INDEX 01 00:39:51
  TRACK 31 AUDIO
    TITLE "0:"
    INDEX 01 00:43:66
  TRACK 32 AUDIO
    TITLE "2:cjc115_6115"
    INDEX 01 00:45:00
  TRACK 33 AUDIO
    TITLE "0:"
    INDEX 01 00:46:25
  TRACK 34 AUDIO
    TITLE "3:cjc115_6116"
    INDEX 01 00:46:33
  TRACK 35 AUDIO
    TITLE "0:"
    INDEX 01 00:48:63
  TRACK 36 AUDIO
    TITLE "4:cjc115_6117"
    INDEX 01 00:48:69
  TRACK 37 AUDIO
    TITLE "0:"
    INDEX 01 00:54:05
  TRACK 38 AUDIO
    TITLE "2:cjc115_6118"
    INDEX 01 00:55:10
  TRACK 39 AUDIO
    TITLE "0:"
    INDEX 01 00:56:31
  TRACK 40 AUDIO
    TITLE "3:cjc115_6119"
    INDEX 01 00:56:39
  TRACK 41 AUDIO
    TITLE "0:"
    INDEX 01 00:58:52
  TRACK 42 AUDIO
    TITLE "4:cjc115_6120"
    INDEX 01 00:58:56
  TRACK 43 AUDIO
    TITLE "0:"
    INDEX 01 01:03:14
  TRACK 44 AUDIO
    TITLE "2:cjc115_6121"
    INDEX 01 01:04:23
  TRACK 45 AUDIO
    TITLE "0:"
    INDEX 01 01:06:08
  TRACK 46 AUDIO
    TITLE "3:cjc115_6122"
    INDEX 01 01:06:10
  TRACK 47 AUDIO
    TITLE "0:"
    INDEX 01 01:07:55
  TRACK 48 AUDIO
    TITLE "4:cjc115_6123"
    INDEX 01 01:07:64
  TRACK 49 AUDIO
    TITLE "0:"
    INDEX 01 01:11:72
  TRACK 50 AUDIO
    TITLE "2:cjc115_6124"
    INDEX 01 01:13:00
  TRACK 51 AUDIO
    TITLE "0:"
    INDEX 01 01:14:19
  TRACK 52 AUDIO
    TITLE "3:cjc115_6125"
    INDEX 01 01:14:29
  TRACK 53 AUDIO
    TITLE "0:"
    INDEX 01 01:16:60
  TRACK 54 AUDIO
    TITLE "4:cjc115_6126"
    INDEX 01 01:16:61
  TRACK 55 AUDIO
    TITLE "0:"
    INDEX 01 01:19:64
  TRACK 56 AUDIO
    TITLE "2:cjc115_6127"
    INDEX 01 01:20:71
  TRACK 57 AUDIO
    TITLE "0:"
    INDEX 01 01:22:29
  TRACK 58 AUDIO
    TITLE "3:cjc115_6128"
    INDEX 01 01:22:39
  TRACK 59 AUDIO
    TITLE "0:"
    INDEX 01 01:24:10
  TRACK 60 AUDIO
    TITLE "4:cjc115_6129"
    INDEX 01 01:24:18
  TRACK 61 AUDIO
    TITLE "0:"
    INDEX 01 01:27:06
  TRACK 62 AUDIO
    TITLE "2:cjc115_6130"
    INDEX 01 01:28:16
  TRACK 63 AUDIO
    TITLE "0:"
    INDEX 01 01:29:31
  TRACK 64 AUDIO
    TITLE "3:cjc115_6131"
    INDEX 01 01:29:41
  TRACK 65 AUDIO
    TITLE "0:"
    INDEX 01 01:30:67
  TRACK 66 AUDIO
    TITLE "4:cjc115_6132"
    INDEX 01 01:30:73
  TRACK 67 AUDIO
    TITLE "0:"
    INDEX 01 01:35:37
  TRACK 68 AUDIO
    TITLE "2:cjc115_6133"
    INDEX 01 01:36:43
  TRACK 69 AUDIO
    TITLE "0:"
    INDEX 01 01:38:57
  TRACK 70 AUDIO
    TITLE "3:cjc115_6134"
    INDEX 01 01:38:67
  TRACK 71 AUDIO
    TITLE "0:"
    INDEX 01 01:40:66
  TRACK 72 AUDIO
    TITLE "4:cjc115_6135"
    INDEX 01 01:41:01
  TRACK 73 AUDIO
    TITLE "0:"
    INDEX 01 01:44:60
